[2026-03-15 12:44:41] [INFO] Jarvis Desktop launcher started.
[2026-03-15 12:44:41] [INFO] Runtime log path: C:\Jarvis\logs\runtime_2026-03-15_12-44-41.txt
[2026-03-15 12:44:41] [INFO] Launcher executable: C:\Users\anden\AppData\Local\Python\pythoncore-3.14-64\pythonw.exe
[2026-03-15 12:44:41] [INFO] Root directory: C:\Jarvis
[2026-03-15 12:44:41] [INFO] Target script: C:\Jarvis\jarvis_desktop_test.py
[2026-03-15 12:44:41] [INFO] Diagnostics script: C:\Jarvis\desktop\jarvis_diagnostics.pyw
[2026-03-15 12:44:41] [INFO] Recovery attempts allowed: 3
[2026-03-15 12:44:41] [INFO] Voice hook ready: C:\Jarvis\jarvis_voice.py
[2026-03-15 12:44:41] [INFO] Starting desktop renderer process. attempt=1
[2026-03-15 12:44:41] [INFO] Child executable: C:\Users\anden\AppData\Local\Python\pythoncore-3.14-64\pythonw.exe
[2026-03-15 12:44:41] [STDOUT] Jarvis Desktop Concept 1 - Version 1.02
[2026-03-15 12:44:41] [STDOUT] Hotkey: Ctrl + Alt + End
[2026-03-15 12:44:41] [STDERR] Traceback (most recent call last):
[2026-03-15 12:44:41] [STDERR]   File "C:\Jarvis\jarvis_desktop_test.py", line 44, in <module>
[2026-03-15 12:44:41] [STDERR]     raise SystemExit(main())
[2026-03-15 12:44:41] [STDERR]                      ~~~~^^
[2026-03-15 12:44:41] [STDERR]   File "C:\Jarvis\jarvis_desktop_test.py", line 36, in main
[2026-03-15 12:44:41] [STDERR]     raise RuntimeError("Jarvis test crash triggered intentionally")
[2026-03-15 12:44:41] [STDERR] RuntimeError: Jarvis test crash triggered intentionally
[2026-03-15 12:44:41] [INFO] Desktop renderer exited. exit_code=1
[2026-03-15 12:44:41] [WARN] Recovery attempt 1/3
[2026-03-15 12:44:42] [INFO] Starting desktop renderer process. attempt=2
[2026-03-15 12:44:42] [INFO] Child executable: C:\Users\anden\AppData\Local\Python\pythoncore-3.14-64\pythonw.exe
[2026-03-15 12:44:43] [STDOUT] Jarvis Desktop Concept 1 - Version 1.02
[2026-03-15 12:44:43] [STDOUT] Hotkey: Ctrl + Alt + End
[2026-03-15 12:44:43] [STDERR] Traceback (most recent call last):
[2026-03-15 12:44:43] [STDERR]   File "C:\Jarvis\jarvis_desktop_test.py", line 44, in <module>
[2026-03-15 12:44:43] [STDERR]     raise SystemExit(main())
[2026-03-15 12:44:43] [STDERR]                      ~~~~^^
[2026-03-15 12:44:43] [STDERR]   File "C:\Jarvis\jarvis_desktop_test.py", line 36, in main
[2026-03-15 12:44:43] [STDERR]     raise RuntimeError("Jarvis test crash triggered intentionally")
[2026-03-15 12:44:43] [STDERR] RuntimeError: Jarvis test crash triggered intentionally
[2026-03-15 12:44:43] [INFO] Desktop renderer exited. exit_code=1
[2026-03-15 12:44:43] [WARN] Recovery attempt 2/3
[2026-03-15 12:44:44] [INFO] Starting desktop renderer process. attempt=3
[2026-03-15 12:44:44] [INFO] Child executable: C:\Users\anden\AppData\Local\Python\pythoncore-3.14-64\pythonw.exe
[2026-03-15 12:44:44] [STDOUT] Jarvis Desktop Concept 1 - Version 1.02
[2026-03-15 12:44:44] [STDOUT] Hotkey: Ctrl + Alt + End
[2026-03-15 12:44:44] [STDERR] Traceback (most recent call last):
[2026-03-15 12:44:44] [STDERR]   File "C:\Jarvis\jarvis_desktop_test.py", line 44, in <module>
[2026-03-15 12:44:44] [STDERR]     raise SystemExit(main())
[2026-03-15 12:44:44] [STDERR]                      ~~~~^^
[2026-03-15 12:44:44] [STDERR]   File "C:\Jarvis\jarvis_desktop_test.py", line 36, in main
[2026-03-15 12:44:44] [STDERR]     raise RuntimeError("Jarvis test crash triggered intentionally")
[2026-03-15 12:44:44] [STDERR] RuntimeError: Jarvis test crash triggered intentionally
[2026-03-15 12:44:44] [INFO] Desktop renderer exited. exit_code=1
[2026-03-15 12:44:44] [ERROR] Crash log written: C:\Jarvis\logs\crash\crash_2026-03-15_12-44-44.txt
[2026-03-15 12:44:44] [INFO] Trying voice line 'Uhm..... Sir, I seem to be malfunctioning.' using voice --text --mode
[2026-03-15 12:44:52] [VOICE_STDERR] Input #0, wav, from 'C:/Users/anden/AppData/Local/Temp/tmpd44wkhnw.wav':
[2026-03-15 12:44:52] [VOICE_STDERR]   Metadata:
[2026-03-15 12:44:52] [VOICE_STDERR]     encoder         : Lavf62.13.100
[2026-03-15 12:44:52] [VOICE_STDERR]   Duration: 00:00:06.10, bitrate: 384 kb/s
[2026-03-15 12:44:52] [VOICE_STDERR]   Stream #0:0: Audio: pcm_s16le ([1][0][0][0] / 0x0001), 24000 Hz, 1 channels, s16, 384 kb/s
[2026-03-15 12:44:52] [INFO] Voice line completed: Uhm..... Sir, I seem to be malfunctioning.
[2026-03-15 12:44:52] [INFO] Failure voice step 1/3 success=True line=Uhm..... Sir, I seem to be malfunctioning.
[2026-03-15 12:44:53] [INFO] Trying voice line 'Attempting restart.' using voice --text --mode
[2026-03-15 12:44:57] [VOICE_STDERR] Input #0, wav, from 'C:/Users/anden/AppData/Local/Temp/tmpq69bvrwd.wav':
[2026-03-15 12:44:57] [VOICE_STDERR]   Metadata:
[2026-03-15 12:44:57] [VOICE_STDERR]     encoder         : Lavf62.13.100
[2026-03-15 12:44:57] [VOICE_STDERR]   Duration: 00:00:03.20, bitrate: 384 kb/s
[2026-03-15 12:44:57] [VOICE_STDERR]   Stream #0:0: Audio: pcm_s16le ([1][0][0][0] / 0x0001), 24000 Hz, 1 channels, s16, 384 kb/s
[2026-03-15 12:44:57] [INFO] Voice line completed: Attempting restart.
[2026-03-15 12:44:57] [INFO] Failure voice step 2/3 success=True line=Attempting restart.
[2026-03-15 12:44:58] [INFO] Trying voice line 'Restart failed.' using voice --text --mode
[2026-03-15 12:45:02] [VOICE_STDERR] Input #0, wav, from 'C:/Users/anden/AppData/Local/Temp/tmpk746rz71.wav':
[2026-03-15 12:45:02] [VOICE_STDERR]   Metadata:
[2026-03-15 12:45:02] [VOICE_STDERR]     encoder         : Lavf62.13.100
[2026-03-15 12:45:02] [VOICE_STDERR]   Duration: 00:00:03.10, bitrate: 384 kb/s
[2026-03-15 12:45:02] [VOICE_STDERR]   Stream #0:0: Audio: pcm_s16le ([1][0][0][0] / 0x0001), 24000 Hz, 1 channels, s16, 384 kb/s
[2026-03-15 12:45:02] [INFO] Voice line completed: Restart failed.
[2026-03-15 12:45:02] [INFO] Failure voice step 3/3 success=True line=Restart failed.
[2026-03-15 12:45:03] [INFO] Diagnostics process launched.
